<svg xmlns="http://www.w3.org/2000/svg" viewBox="0 0 800 800" role="img" aria-labelledby="t"><title id="t">Trail backpack</title><defs><linearGradient id="g" x1="0" y1="0" x2="1" y2="1"><stop stop-color="#d8e5ef"/><stop offset="1" stop-color="#607d91"/></linearGradient></defs><rect width="800" height="800" rx="72" fill="url(#g)"/><path d="M292 245c0-142 216-142 216 0" fill="none" stroke="#21343f" stroke-width="38"/><rect x="210" y="226" width="380" height="390" rx="92" fill="#263b47"/><path d="M240 360h320v194c0 40-32 72-72 72H312c-40 0-72-32-72-72V360Z" fill="#385361"/><path d="M270 330h260" stroke="#8eb3c2" stroke-width="24" stroke-linecap="round"/><rect x="318" y="414" width="164" height="106" rx="28" fill="#1d2e37"/><path d="M210 322c-76 74-74 194-28 272M590 322c76 74 74 194 28 272" fill="none" stroke="#21343f" stroke-width="32" stroke-linecap="round"/><text x="400" y="706" text-anchor="middle" font-family="Arial,sans-serif" font-size="44" font-weight="700" fill="#21343f">TRAIL</text></svg>
